<mxfile host="app.diagrams.net" modified="2023-04-06T13:54:38.333Z" agent="Mozilla/5.0 (X11; Linux x86_64) AppleWebKit/537.36 (KHTML, like Gecko) Chrome/110.0.0.0 Safari/537.36" etag="0l7nxZfTndtNly7t9DhG" version="21.1.4" type="github">
  <diagram name="Page-1" id="4CPgPNE-6awET73HkTQn">
    <mxGraphModel dx="819" dy="477" grid="1" gridSize="10" guides="1" tooltips="1" connect="1" arrows="1" fold="1" page="1" pageScale="1" pageWidth="800" pageHeight="800" math="0" shadow="0">
      <root>
        <mxCell id="0" />
        <mxCell id="1" parent="0" />
        <mxCell id="8cWyVWaOQBvI74vChej5-13" style="edgeStyle=orthogonalEdgeStyle;rounded=0;orthogonalLoop=1;jettySize=auto;html=1;" parent="1" source="8cWyVWaOQBvI74vChej5-1" target="8cWyVWaOQBvI74vChej5-5" edge="1">
          <mxGeometry relative="1" as="geometry" />
        </mxCell>
        <mxCell id="8cWyVWaOQBvI74vChej5-1" value="Request" style="rounded=1;whiteSpace=wrap;html=1;fontSize=15;" parent="1" vertex="1">
          <mxGeometry x="240" y="170" width="120" height="60" as="geometry" />
        </mxCell>
        <mxCell id="8cWyVWaOQBvI74vChej5-2" value="WP" style="text;html=1;strokeColor=#006EAF;fillColor=#1ba1e2;align=center;verticalAlign=middle;whiteSpace=wrap;rounded=0;fontColor=#ffffff;fontSize=10;" parent="1" vertex="1">
          <mxGeometry x="248" y="172" width="20" height="12" as="geometry" />
        </mxCell>
        <mxCell id="8cWyVWaOQBvI74vChej5-8" style="edgeStyle=orthogonalEdgeStyle;rounded=0;orthogonalLoop=1;jettySize=auto;html=1;entryX=0;entryY=0.5;entryDx=0;entryDy=0;" parent="1" source="8cWyVWaOQBvI74vChej5-3" target="8cWyVWaOQBvI74vChej5-5" edge="1">
          <mxGeometry relative="1" as="geometry">
            <Array as="points">
              <mxPoint x="90" y="294" />
            </Array>
          </mxGeometry>
        </mxCell>
        <mxCell id="8cWyVWaOQBvI74vChej5-3" value="Request" style="rounded=1;whiteSpace=wrap;html=1;fontSize=15;" parent="1" vertex="1">
          <mxGeometry x="40" y="264" width="120" height="60" as="geometry" />
        </mxCell>
        <mxCell id="8cWyVWaOQBvI74vChej5-4" value="SSP" style="text;html=1;strokeColor=#006EAF;fillColor=#1ba1e2;align=center;verticalAlign=middle;whiteSpace=wrap;rounded=0;fontColor=#ffffff;fontSize=10;" parent="1" vertex="1">
          <mxGeometry x="50" y="266" width="20" height="12" as="geometry" />
        </mxCell>
        <mxCell id="8cWyVWaOQBvI74vChej5-16" value="" style="edgeStyle=orthogonalEdgeStyle;rounded=0;orthogonalLoop=1;jettySize=auto;html=1;exitX=0.25;exitY=1;exitDx=0;exitDy=0;" parent="1" source="8cWyVWaOQBvI74vChej5-5" target="8cWyVWaOQBvI74vChej5-15" edge="1">
          <mxGeometry relative="1" as="geometry">
            <Array as="points">
              <mxPoint x="270" y="359" />
              <mxPoint x="129" y="359" />
            </Array>
          </mxGeometry>
        </mxCell>
        <mxCell id="8cWyVWaOQBvI74vChej5-5" value="Approve Request&lt;br&gt;(Enrolment)" style="rounded=1;whiteSpace=wrap;html=1;fontSize=15;" parent="1" vertex="1">
          <mxGeometry x="240" y="264" width="120" height="60" as="geometry" />
        </mxCell>
        <mxCell id="8cWyVWaOQBvI74vChej5-6" value="WP" style="text;html=1;strokeColor=#006EAF;fillColor=#1ba1e2;align=center;verticalAlign=middle;whiteSpace=wrap;rounded=0;fontColor=#ffffff;fontSize=10;" parent="1" vertex="1">
          <mxGeometry x="248" y="266" width="20" height="12" as="geometry" />
        </mxCell>
        <mxCell id="8cWyVWaOQBvI74vChej5-30" value="" style="edgeStyle=orthogonalEdgeStyle;rounded=0;orthogonalLoop=1;jettySize=auto;html=1;exitX=0.5;exitY=1;exitDx=0;exitDy=0;entryX=0;entryY=0.5;entryDx=0;entryDy=0;" parent="1" source="8cWyVWaOQBvI74vChej5-15" target="8cWyVWaOQBvI74vChej5-19" edge="1">
          <mxGeometry relative="1" as="geometry" />
        </mxCell>
        <mxCell id="8cWyVWaOQBvI74vChej5-42" style="edgeStyle=orthogonalEdgeStyle;rounded=0;orthogonalLoop=1;jettySize=auto;html=1;entryX=0;entryY=0.5;entryDx=0;entryDy=0;exitX=0.5;exitY=1;exitDx=0;exitDy=0;" parent="1" source="8cWyVWaOQBvI74vChej5-5" target="8cWyVWaOQBvI74vChej5-35" edge="1">
          <mxGeometry relative="1" as="geometry">
            <Array as="points">
              <mxPoint x="330" y="324" />
              <mxPoint x="330" y="384" />
            </Array>
          </mxGeometry>
        </mxCell>
        <mxCell id="8cWyVWaOQBvI74vChej5-15" value="Prepare Voucher(Entitlement)" style="rounded=1;whiteSpace=wrap;html=1;fontSize=15;" parent="1" vertex="1">
          <mxGeometry x="44" y="394" width="170" height="60" as="geometry" />
        </mxCell>
        <mxCell id="8cWyVWaOQBvI74vChej5-25" style="edgeStyle=orthogonalEdgeStyle;rounded=0;orthogonalLoop=1;jettySize=auto;html=1;" parent="1" source="8cWyVWaOQBvI74vChej5-19" target="8cWyVWaOQBvI74vChej5-24" edge="1">
          <mxGeometry relative="1" as="geometry">
            <Array as="points">
              <mxPoint x="600" y="474" />
              <mxPoint x="600" y="404" />
            </Array>
          </mxGeometry>
        </mxCell>
        <mxCell id="8cWyVWaOQBvI74vChej5-19" value="Print Voucher&amp;nbsp;" style="rounded=1;whiteSpace=wrap;html=1;fontSize=15;" parent="1" vertex="1">
          <mxGeometry x="410" y="444" width="170" height="60" as="geometry" />
        </mxCell>
        <mxCell id="8cWyVWaOQBvI74vChej5-21" value="OpenG2P" style="text;html=1;strokeColor=#006EAF;fillColor=#1ba1e2;align=center;verticalAlign=middle;whiteSpace=wrap;rounded=0;fontColor=#ffffff;fontSize=10;" parent="1" vertex="1">
          <mxGeometry x="418" y="447" width="39" height="12" as="geometry" />
        </mxCell>
        <mxCell id="tiwfykB5BaasXSH7Y50k-6" value="" style="edgeStyle=orthogonalEdgeStyle;rounded=0;orthogonalLoop=1;jettySize=auto;html=1;" edge="1" parent="1" source="8cWyVWaOQBvI74vChej5-22" target="tiwfykB5BaasXSH7Y50k-5">
          <mxGeometry relative="1" as="geometry" />
        </mxCell>
        <mxCell id="8cWyVWaOQBvI74vChej5-22" value="" style="shape=umlActor;verticalLabelPosition=bottom;verticalAlign=top;html=1;outlineConnect=0;fillColor=#008a00;fontColor=#ffffff;strokeColor=#005700;" parent="1" vertex="1">
          <mxGeometry x="480" y="30" width="30" height="60" as="geometry" />
        </mxCell>
        <mxCell id="8cWyVWaOQBvI74vChej5-32" value="" style="edgeStyle=orthogonalEdgeStyle;rounded=0;orthogonalLoop=1;jettySize=auto;html=1;entryX=0.5;entryY=0;entryDx=0;entryDy=0;" parent="1" source="8cWyVWaOQBvI74vChej5-23" target="tiwfykB5BaasXSH7Y50k-1" edge="1">
          <mxGeometry relative="1" as="geometry">
            <mxPoint x="130" y="140" as="targetPoint" />
          </mxGeometry>
        </mxCell>
        <mxCell id="8cWyVWaOQBvI74vChej5-43" style="edgeStyle=orthogonalEdgeStyle;rounded=0;orthogonalLoop=1;jettySize=auto;html=1;" parent="1" source="8cWyVWaOQBvI74vChej5-23" target="8cWyVWaOQBvI74vChej5-22" edge="1">
          <mxGeometry relative="1" as="geometry">
            <Array as="points">
              <mxPoint x="200" y="60" />
              <mxPoint x="200" y="60" />
            </Array>
          </mxGeometry>
        </mxCell>
        <mxCell id="tiwfykB5BaasXSH7Y50k-24" value="Shares the detail" style="edgeLabel;html=1;align=center;verticalAlign=middle;resizable=0;points=[];" vertex="1" connectable="0" parent="8cWyVWaOQBvI74vChej5-43">
          <mxGeometry x="-0.0575" relative="1" as="geometry">
            <mxPoint as="offset" />
          </mxGeometry>
        </mxCell>
        <mxCell id="tiwfykB5BaasXSH7Y50k-23" style="edgeStyle=orthogonalEdgeStyle;rounded=0;orthogonalLoop=1;jettySize=auto;html=1;entryX=0;entryY=0.5;entryDx=0;entryDy=0;exitX=1;exitY=1;exitDx=0;exitDy=0;exitPerimeter=0;" edge="1" parent="1" source="8cWyVWaOQBvI74vChej5-23" target="tiwfykB5BaasXSH7Y50k-22">
          <mxGeometry relative="1" as="geometry">
            <Array as="points">
              <mxPoint x="115" y="110" />
            </Array>
          </mxGeometry>
        </mxCell>
        <mxCell id="8cWyVWaOQBvI74vChej5-23" value="Actor" style="shape=umlActor;verticalLabelPosition=bottom;verticalAlign=top;html=1;outlineConnect=0;fillColor=#d80073;fontColor=#ffffff;strokeColor=#A50040;" parent="1" vertex="1">
          <mxGeometry x="85" y="30" width="30" height="60" as="geometry" />
        </mxCell>
        <mxCell id="8cWyVWaOQBvI74vChej5-28" style="edgeStyle=orthogonalEdgeStyle;rounded=0;orthogonalLoop=1;jettySize=auto;html=1;entryX=0.5;entryY=0;entryDx=0;entryDy=0;entryPerimeter=0;" parent="1" source="8cWyVWaOQBvI74vChej5-24" target="8cWyVWaOQBvI74vChej5-26" edge="1">
          <mxGeometry relative="1" as="geometry" />
        </mxCell>
        <mxCell id="8cWyVWaOQBvI74vChej5-24" value="Actor" style="shape=umlActor;verticalLabelPosition=bottom;verticalAlign=top;html=1;outlineConnect=0;fillColor=#d80073;fontColor=#ffffff;strokeColor=#A50040;" parent="1" vertex="1">
          <mxGeometry x="730" y="354" width="30" height="60" as="geometry" />
        </mxCell>
        <mxCell id="8cWyVWaOQBvI74vChej5-29" style="edgeStyle=orthogonalEdgeStyle;rounded=0;orthogonalLoop=1;jettySize=auto;html=1;" parent="1" source="8cWyVWaOQBvI74vChej5-26" target="8cWyVWaOQBvI74vChej5-27" edge="1">
          <mxGeometry relative="1" as="geometry" />
        </mxCell>
        <mxCell id="tiwfykB5BaasXSH7Y50k-16" style="edgeStyle=orthogonalEdgeStyle;rounded=0;orthogonalLoop=1;jettySize=auto;html=1;entryX=1;entryY=0.5;entryDx=0;entryDy=0;strokeColor=none;" edge="1" parent="1" source="8cWyVWaOQBvI74vChej5-26">
          <mxGeometry relative="1" as="geometry">
            <mxPoint x="580" y="620" as="targetPoint" />
          </mxGeometry>
        </mxCell>
        <mxCell id="tiwfykB5BaasXSH7Y50k-19" style="edgeStyle=orthogonalEdgeStyle;rounded=0;orthogonalLoop=1;jettySize=auto;html=1;entryX=0.5;entryY=0;entryDx=0;entryDy=0;entryPerimeter=0;" edge="1" parent="1" source="8cWyVWaOQBvI74vChej5-26" target="tiwfykB5BaasXSH7Y50k-18">
          <mxGeometry relative="1" as="geometry" />
        </mxCell>
        <mxCell id="tiwfykB5BaasXSH7Y50k-20" value="Delivers Benefit" style="edgeLabel;html=1;align=center;verticalAlign=middle;resizable=0;points=[];" vertex="1" connectable="0" parent="tiwfykB5BaasXSH7Y50k-19">
          <mxGeometry x="-0.1995" y="-2" relative="1" as="geometry">
            <mxPoint as="offset" />
          </mxGeometry>
        </mxCell>
        <mxCell id="8cWyVWaOQBvI74vChej5-26" value="Actor" style="shape=umlActor;verticalLabelPosition=bottom;verticalAlign=top;html=1;outlineConnect=0;fillColor=#0050ef;fontColor=#ffffff;strokeColor=#001DBC;" parent="1" vertex="1">
          <mxGeometry x="730" y="534" width="30" height="60" as="geometry" />
        </mxCell>
        <mxCell id="tiwfykB5BaasXSH7Y50k-27" value="" style="edgeStyle=orthogonalEdgeStyle;rounded=0;orthogonalLoop=1;jettySize=auto;html=1;" edge="1" parent="1" source="8cWyVWaOQBvI74vChej5-27" target="8cWyVWaOQBvI74vChej5-40">
          <mxGeometry relative="1" as="geometry" />
        </mxCell>
        <mxCell id="8cWyVWaOQBvI74vChej5-27" value="Scan Voucher &amp;amp; Validate&amp;nbsp;" style="rounded=1;whiteSpace=wrap;html=1;fontSize=15;" parent="1" vertex="1">
          <mxGeometry x="460" y="534" width="120" height="60" as="geometry" />
        </mxCell>
        <mxCell id="8cWyVWaOQBvI74vChej5-39" style="edgeStyle=orthogonalEdgeStyle;rounded=0;orthogonalLoop=1;jettySize=auto;html=1;entryX=0.5;entryY=0.5;entryDx=0;entryDy=0;entryPerimeter=0;" parent="1" source="8cWyVWaOQBvI74vChej5-35" target="8cWyVWaOQBvI74vChej5-24" edge="1">
          <mxGeometry relative="1" as="geometry" />
        </mxCell>
        <mxCell id="8cWyVWaOQBvI74vChej5-35" value="Pay Cash&lt;br&gt;(Entitlement + Payment )" style="rounded=1;whiteSpace=wrap;html=1;fontSize=15;" parent="1" vertex="1">
          <mxGeometry x="410" y="354" width="170" height="60" as="geometry" />
        </mxCell>
        <mxCell id="8cWyVWaOQBvI74vChej5-37" value="OpenG2P" style="text;html=1;strokeColor=#006EAF;fillColor=#1ba1e2;align=center;verticalAlign=middle;whiteSpace=wrap;rounded=0;fontColor=#ffffff;fontSize=10;" parent="1" vertex="1">
          <mxGeometry x="418" y="357" width="39" height="12" as="geometry" />
        </mxCell>
        <mxCell id="tiwfykB5BaasXSH7Y50k-31" style="edgeStyle=orthogonalEdgeStyle;rounded=0;orthogonalLoop=1;jettySize=auto;html=1;" edge="1" parent="1" source="8cWyVWaOQBvI74vChej5-40" target="tiwfykB5BaasXSH7Y50k-10">
          <mxGeometry relative="1" as="geometry" />
        </mxCell>
        <mxCell id="8cWyVWaOQBvI74vChej5-40" value="Upload Invoice &amp;amp; &lt;br&gt;Voucher&amp;nbsp;" style="rounded=1;whiteSpace=wrap;html=1;fontSize=15;" parent="1" vertex="1">
          <mxGeometry x="240" y="534" width="120" height="60" as="geometry" />
        </mxCell>
        <mxCell id="tiwfykB5BaasXSH7Y50k-32" style="edgeStyle=orthogonalEdgeStyle;rounded=0;orthogonalLoop=1;jettySize=auto;html=1;entryX=0;entryY=1;entryDx=0;entryDy=0;entryPerimeter=0;" edge="1" parent="1" source="8cWyVWaOQBvI74vChej5-45" target="8cWyVWaOQBvI74vChej5-26">
          <mxGeometry relative="1" as="geometry">
            <mxPoint x="670" y="580" as="targetPoint" />
            <Array as="points">
              <mxPoint x="640" y="653" />
              <mxPoint x="640" y="594" />
            </Array>
          </mxGeometry>
        </mxCell>
        <mxCell id="8cWyVWaOQBvI74vChej5-45" value="Send Payment&lt;br&gt;(PH)" style="rounded=1;whiteSpace=wrap;html=1;fontSize=15;" parent="1" vertex="1">
          <mxGeometry x="240" y="623" width="170" height="60" as="geometry" />
        </mxCell>
        <mxCell id="tiwfykB5BaasXSH7Y50k-2" value="" style="edgeStyle=orthogonalEdgeStyle;rounded=0;orthogonalLoop=1;jettySize=auto;html=1;" edge="1" parent="1" source="tiwfykB5BaasXSH7Y50k-1" target="8cWyVWaOQBvI74vChej5-3">
          <mxGeometry relative="1" as="geometry" />
        </mxCell>
        <mxCell id="tiwfykB5BaasXSH7Y50k-1" value="Authorize&lt;br&gt;(eSignet)" style="rounded=1;whiteSpace=wrap;html=1;fontSize=15;" vertex="1" parent="1">
          <mxGeometry x="40" y="170" width="120" height="60" as="geometry" />
        </mxCell>
        <mxCell id="tiwfykB5BaasXSH7Y50k-7" value="" style="edgeStyle=orthogonalEdgeStyle;rounded=0;orthogonalLoop=1;jettySize=auto;html=1;" edge="1" parent="1" source="tiwfykB5BaasXSH7Y50k-5" target="8cWyVWaOQBvI74vChej5-1">
          <mxGeometry relative="1" as="geometry" />
        </mxCell>
        <mxCell id="tiwfykB5BaasXSH7Y50k-5" value="Authorize&lt;br&gt;(eSignet)" style="rounded=1;whiteSpace=wrap;html=1;fontSize=15;" vertex="1" parent="1">
          <mxGeometry x="435" y="170" width="120" height="60" as="geometry" />
        </mxCell>
        <mxCell id="tiwfykB5BaasXSH7Y50k-9" value="OpenG2P" style="text;html=1;strokeColor=#006EAF;fillColor=#1ba1e2;align=center;verticalAlign=middle;whiteSpace=wrap;rounded=0;fontColor=#ffffff;fontSize=10;" vertex="1" parent="1">
          <mxGeometry x="51" y="397" width="39" height="12" as="geometry" />
        </mxCell>
        <mxCell id="tiwfykB5BaasXSH7Y50k-30" style="edgeStyle=orthogonalEdgeStyle;rounded=0;orthogonalLoop=1;jettySize=auto;html=1;entryX=0;entryY=0.5;entryDx=0;entryDy=0;exitX=0.5;exitY=1;exitDx=0;exitDy=0;" edge="1" parent="1" source="tiwfykB5BaasXSH7Y50k-10" target="8cWyVWaOQBvI74vChej5-45">
          <mxGeometry relative="1" as="geometry" />
        </mxCell>
        <mxCell id="tiwfykB5BaasXSH7Y50k-10" value="Approve Payment" style="rounded=1;whiteSpace=wrap;html=1;fontSize=15;" vertex="1" parent="1">
          <mxGeometry x="44" y="534" width="116" height="60" as="geometry" />
        </mxCell>
        <mxCell id="tiwfykB5BaasXSH7Y50k-11" value="HPP" style="text;html=1;strokeColor=#006EAF;fillColor=#1ba1e2;align=center;verticalAlign=middle;whiteSpace=wrap;rounded=0;fontColor=#ffffff;fontSize=10;" vertex="1" parent="1">
          <mxGeometry x="468" y="537" width="22" height="12" as="geometry" />
        </mxCell>
        <mxCell id="tiwfykB5BaasXSH7Y50k-12" value="HPP" style="text;html=1;strokeColor=#006EAF;fillColor=#1ba1e2;align=center;verticalAlign=middle;whiteSpace=wrap;rounded=0;fontColor=#ffffff;fontSize=10;" vertex="1" parent="1">
          <mxGeometry x="78" y="647" width="22" height="12" as="geometry" />
        </mxCell>
        <mxCell id="tiwfykB5BaasXSH7Y50k-18" value="Actor" style="shape=umlActor;verticalLabelPosition=bottom;verticalAlign=top;html=1;outlineConnect=0;fillColor=#d80073;fontColor=#ffffff;strokeColor=#A50040;" vertex="1" parent="1">
          <mxGeometry x="730" y="700" width="30" height="60" as="geometry" />
        </mxCell>
        <mxCell id="tiwfykB5BaasXSH7Y50k-33" style="edgeStyle=orthogonalEdgeStyle;rounded=0;orthogonalLoop=1;jettySize=auto;html=1;entryX=0.5;entryY=0;entryDx=0;entryDy=0;" edge="1" parent="1" source="tiwfykB5BaasXSH7Y50k-22" target="8cWyVWaOQBvI74vChej5-1">
          <mxGeometry relative="1" as="geometry" />
        </mxCell>
        <mxCell id="tiwfykB5BaasXSH7Y50k-22" value="Authorize&lt;br&gt;(eSignet)" style="rounded=1;whiteSpace=wrap;html=1;fontSize=15;" vertex="1" parent="1">
          <mxGeometry x="240" y="80" width="120" height="60" as="geometry" />
        </mxCell>
      </root>
    </mxGraphModel>
  </diagram>
</mxfile>
